<?xml version="1.0" encoding="UTF-8"?><svg id="Layer_2" xmlns="http://www.w3.org/2000/svg" viewBox="0 0 27.54 21.26"><defs><style>.cls-1{fill:#30261d;}.cls-1,.cls-2{fill-rule:evenodd;}.cls-2{fill:#f69300;}</style></defs><g id="Layer_1-2"><g><path class="cls-2" d="M13.77,0C6.15,0,0,6.02,0,13.48c0,2.89,.95,5.57,2.54,7.78h5.62c-.87-.6-1.67-1.33-2.28-2.18h-.03c-.23-.3-.44-.63-.62-.95-.8-1.36-1.23-2.94-1.23-4.62-.03-5.25,4.39-9.49,9.8-9.49s9.85,4.24,9.85,9.49c0,3.21-1.64,6.02-4.18,7.76h5.54c1.59-2.21,2.54-4.87,2.54-7.78-.03-7.45-6.18-13.48-13.77-13.48"/><path class="cls-1" d="M7.73,14.21v-1.87c0-.41,.32-.74,.71-.74h10.65c.39,0,.71,.33,.71,.74v1.87c0,.41-.32,.77-.71,.77H8.47c-.42,0-.74-.36-.74-.77"/></g></g></svg>