<?xml version="1.0" encoding="UTF-8"?><svg id="Layer_2" xmlns="http://www.w3.org/2000/svg" viewBox="0 0 27.54 21.26"><defs><style>.cls-1{fill:#30261d;}.cls-1,.cls-2{fill-rule:evenodd;}.cls-2{fill:#19695b;}</style></defs><g id="Layer_1-2"><g><path class="cls-2" d="M13.77,0C6.15,0,0,6.02,0,13.48c0,2.89,.95,5.57,2.54,7.78h5.62c-.87-.6-1.67-1.33-2.28-2.18h-.03c-.23-.3-.44-.63-.62-.95-.8-1.36-1.23-2.94-1.23-4.62-.03-5.25,4.39-9.49,9.8-9.49s9.85,4.24,9.85,9.49c0,3.21-1.64,6.02-4.18,7.76h5.54c1.59-2.21,2.54-4.87,2.54-7.78-.03-7.45-6.18-13.48-13.77-13.48"/><path class="cls-1" d="M20.02,11.6h-4.56V7.06c0-.44-.34-.78-.72-.78h-1.94c-.38,0-.72,.34-.72,.75v4.56H7.49c-.4,0-.73,.38-.73,.82v2.22c0,.47,.33,.82,.75,.82h4.56v4.54c0,.44,.34,.78,.72,.78h1.94c.41,0,.72-.36,.72-.78v-4.54h4.56c.43,0,.75-.38,.75-.82v-2.22c0-.47-.35-.82-.75-.82Z"/></g></g></svg>