<svg xmlns="http://www.w3.org/2000/svg" xmlns:xlink="http://www.w3.org/1999/xlink" id="ticket-orange" width="40.964" height="40.963" viewBox="0 0 40.964 40.963"><defs><clipPath id="clip-path"><rect id="Rectangle_680" data-name="Rectangle 680" width="40.964" height="40.963" fill="#f69300"></rect></clipPath></defs><g id="Group_885" data-name="Group 885"><g id="Group_884" data-name="Group 884" clip-path="url(#clip-path)"><g id="Group_883" data-name="Group 883" transform="translate(0 0)"><g id="Group_882" data-name="Group 882" clip-path="url(#clip-path)"><path id="Path_604" data-name="Path 604" d="M1358.523-671.687l4.13,4.134a1,1,0,0,1,0,1.416l-24.792,24.792a1,1,0,0,1-1.416,0l-4.135-4.13a1,1,0,0,1,0-1.416,3.152,3.152,0,0,0,.932-2.247,3.156,3.156,0,0,0-.932-2.243h.005a3.175,3.175,0,0,0-2.246-.927,3.171,3.171,0,0,0-2.244.927,1,1,0,0,1-1.416,0l-4.135-4.13a1,1,0,0,1,0-1.416l24.8-24.8a1,1,0,0,1,1.416,0l4.13,4.134a1,1,0,0,1,0,1.416v0a3.167,3.167,0,0,0-.932,2.246h0a3.171,3.171,0,0,0,.927,2.244,3.159,3.159,0,0,0,2.243.931v0a3.175,3.175,0,0,0,2.247-.936,1,1,0,0,1,1.416,0Zm-11.782,4.039-2.127-2.126,1.416-1.416,2.127,2.126Zm3.964,3.968-2.127-2.127,1.416-1.416,2.127,2.122-1.416,1.419Zm9.823-3.165-2.781-2.786a5.165,5.165,0,0,1-2.887.877,5.161,5.161,0,0,1-3.658-1.515,5.157,5.157,0,0,1-1.515-3.658h.005a5.184,5.184,0,0,1,.874-2.882l-2.786-2.786-5.074,5.078,1.416,1.416-1.416,1.417-1.419-1.417-16.881,16.881,2.786,2.786a5.162,5.162,0,0,1,2.882-.877,5.154,5.154,0,0,1,3.655,1.515h0a5.155,5.155,0,0,1,1.515,3.658,5.188,5.188,0,0,1-.874,2.887l2.781,2.781,16.886-16.881-1.429-1.424,1.416-1.416,1.429,1.424,5.074-5.078Z" transform="translate(-1321.983 682.014)" fill="#f69300"></path></g></g></g></g></svg>