<svg xmlns="http://www.w3.org/2000/svg" width="35.496" height="27.603" viewBox="0 0 35.496 27.603"><path id="map-svg" d="M17.165,15a1.171,1.171,0,0,0-.333.074L5.789,19.017A1.185,1.185,0,0,0,5,20.126v21.3a1.183,1.183,0,0,0,1.578,1.109l10.649-3.808,10.649,3.808a1.175,1.175,0,0,0,.789,0l11.043-3.944A1.185,1.185,0,0,0,40.5,37.48v-21.3a1.183,1.183,0,0,0-1.578-1.109L28.27,18.881,17.621,15.073A1.182,1.182,0,0,0,17.165,15Zm-1.122,2.847V36.654L7.367,39.748v-18.8Zm2.366,0,8.677,3.106V39.76L18.41,36.654Zm19.72.012v18.8L29.453,39.76V20.951Z" transform="translate(-5 -14.998)" fill="#f69300"></path></svg>